PathFileType	4	(X/Y/Z)	C:\Users\Basilio\Documents\Thesis Gigler\squatting_fais\c3dfiles\019\SLS_front_pre4\markers_experimental.trc
DataRate	CameraRate	NumFrames	NumMarkers	Units	OrigDataRate	OrigDataStartFrame	OrigNumFrames
200.000000	200.000000	4	59	mm	200.000000	780	1561
Frame#	Time	LBHD			RBHD			C7			T10			CLAV			LSHO			LUUPA			LMUPA			LDUPA			LLEP			LMEP			LRAD			LUL			LRFIN			RSHO			RUPA1			RMUPA			RDUPA			RLEP			RMEP			RRAD			RUL			RUFIN			LASI			RASI			USACR			LSACR			RSACR			LTHI1			LTHI2			LTHI3			LTHI4			LLFC			LTIB1			LTIB2			LTIB3			LTIB4			LLMAL			LMMAL			LHEE			LMT1			LMT2			LMT5			RTHI			RTHI2			RTHI3			RTHI4			RLFC			RTIB1			RTIB2			RTIB3			RTIB4			RLMAL			RMMAL			RHEE			RMT1			RMT2			RMT5			FHD			
		X1	Y1	Z1	X2	Y2	Z2	X3	Y3	Z3	X4	Y4	Z4	X5	Y5	Z5	X6	Y6	Z6	X7	Y7	Z7	X8	Y8	Z8	X9	Y9	Z9	X10	Y10	Z10	X11	Y11	Z11	X12	Y12	Z12	X13	Y13	Z13	X14	Y14	Z14	X15	Y15	Z15	X16	Y16	Z16	X17	Y17	Z17	X18	Y18	Z18	X19	Y19	Z19	X20	Y20	Z20	X21	Y21	Z21	X22	Y22	Z22	X23	Y23	Z23	X24	Y24	Z24	X25	Y25	Z25	X26	Y26	Z26	X27	Y27	Z27	X28	Y28	Z28	X29	Y29	Z29	X30	Y30	Z30	X31	Y31	Z31	X32	Y32	Z32	X33	Y33	Z33	X34	Y34	Z34	X35	Y35	Z35	X36	Y36	Z36	X37	Y37	Z37	X38	Y38	Z38	X39	Y39	Z39	X40	Y40	Z40	X41	Y41	Z41	X42	Y42	Z42	X43	Y43	Z43	X44	Y44	Z44	X45	Y45	Z45	X46	Y46	Z46	X47	Y47	Z47	X48	Y48	Z48	X49	Y49	Z49	X50	Y50	Z50	X51	Y51	Z51	X52	Y52	Z52	X53	Y53	Z53	X54	Y54	Z54	X55	Y55	Z55	X56	Y56	Z56	X57	Y57	Z57	X58	Y58	Z58	X59	Y59	Z59	

781	3.9	-321.2970581054688	1430.0537109375	-772.7940063476565	-324.8866577148438	1420.585571289063	-633.1116333007814	-369.8487854003907	1286.166015625	-694.7091064453126	-510.8093261718751	1038.853759765625	-695.5831298828126	-246.3812408447266	1204.33935546875	-701.2116699218751	-289.4325866699219	1283.16162109375	-821.693786621094	-174.1479797363282	1264.423217773438	-880.8912353515627	-147.9578399658203	1248.11474609375	-842.6055297851565	-108.055160522461	1261.126342773438	-885.344665527344	-38.77646636962891	1240.962280273438	-925.3013916015627	-40.62124633789063	1181.4140625	-923.6518554687502	215.4383239746094	1225.938842773438	-856.0371093750002	207.4718780517579	1241.183471679688	-923.090270996094	287.0115356445313	1240.943359375	-856.6177368164065	-274.4562683105469	1276.839477539063	-590.0697631835939	-155.5762023925782	1227.23095703125	-485.0125122070314	-135.3891906738282	1248.096801757813	-524.1470947265626	-88.57254028320314	1222.916259765625	-487.3772888183595	-13.0805721282959	1219.439575195313	-503.9915161132814	-22.34589576721192	1159.807739257813	-506.5208740234376	217.4050598144532	1220.263061523438	-611.2042236328126	233.2188110351563	1235.625854492188	-545.0096435546876	302.6799926757813	1234.140747070313	-617.7708740234376	-446.2429504394532	828.6558837890627	-823.5579833984377	-430.3160400390626	802.100524902344	-620.7669677734376	-574.8634643554689	903.0482177734377	-707.5403442382814	-590.7159423828126	874.7851562500002	-734.2532958984376	-586.5841064453126	872.2631835937502	-679.6085205078126	-359.0184936523438	667.9405517578126	-927.9498291015627	-273.3450927734376	665.2584838867189	-927.6589965820315	-254.8782501220704	704.7316284179689	-907.9434204101565	-238.1490936279297	615.3360595703126	-924.281188964844	-159.3777923583985	559.5250854492189	-914.3330688476565	-32.97706604003907	479.724090576172	-892.3086547851565	-57.63042068481447	412.6072082519532	-944.6555175781252	-23.79797554016114	430.438690185547	-922.7884521484377	22.90112113952637	363.8214416503907	-892.9031982421877	37.31100082397462	220.2300262451172	-921.4810791015627	55.09510040283205	234.9813537597657	-839.7197875976565	-10.66042900085449	169.9940643310547	-869.1635742187502	199.2351837158204	211.0712890625001	-852.075622558594	205.1276397705079	209.270004272461	-891.1160278320315	170.7524871826172	168.8305358886719	-938.7081298828127	-398.5225830078126	639.6563720703126	-554.2990722656251	-332.8442993164063	635.2447509765626	-565.6485595703126	-318.8545532226563	663.4130249023439	-583.5056762695314	-288.5808410644532	564.8601074218751	-570.6375122070314	-204.9574737548829	445.914520263672	-620.4099121093751	-217.4574584960938	283.1656494140626	-704.0662841796876	-296.2433776855469	223.8350677490235	-652.4487304687501	-267.9584655761719	213.6363372802735	-689.4161987304689	-296.1812744140626	187.3754577636719	-734.3930664062501	-383.1934814453126	124.3109664916992	-690.8981933593751	-365.8774719238282	135.4976654052735	-768.7136840820315	-455.5577392578126	106.1539459228516	-749.5164794921876	-256.6886596679688	56.66592407226564	-773.782409667969	-252.4567260742188	60.23921585083009	-728.1872558593751	-292.3998107910157	48.5621910095215	-674.0856323242189	-194.2736816406251	1462.66552734375	-628.6037597656251	
782	3.905	-320.9876098632813	1428.869506835938	-772.919860839844	-324.5885925292969	1419.712036132813	-633.2161865234376	-369.9709472656251	1284.806640625	-694.8925170898439	-510.7470092773439	1037.687133789063	-695.5847778320314	-246.2272338867188	1203.141967773438	-701.3001708984376	-289.3366394042969	1282.047485351563	-821.806579589844	-174.0283660888672	1263.310546875	-880.935729980469	-148.327133178711	1247.503662109375	-842.6631469726565	-107.9580001831055	1260.126098632813	-885.3354492187502	-38.5017318725586	1239.897705078125	-925.215270996094	-40.32958984375001	1180.376342773438	-923.535827636719	215.5887603759766	1225.141723632813	-855.9536132812502	207.9157867431641	1240.283569335938	-922.7962646484377	286.9020080566407	1239.851806640625	-855.9035644531252	-274.3499145507813	1275.318725585938	-590.0807495117189	-155.5055541992188	1226.182373046875	-485.138153076172	-135.418701171875	1247.251953125	-523.8214721679689	-88.46510314941408	1221.987182617188	-487.513885498047	-12.99987030029297	1218.184936523438	-504.3105773925782	-22.22099685668946	1158.498291015625	-506.4827270507814	217.5008697509766	1219.220825195313	-611.0819091796876	233.6138916015626	1234.452880859375	-544.7546997070314	302.8320007324219	1233.22509765625	-617.5603637695314	-446.483123779297	827.647399902344	-823.5154418945315	-430.3679504394532	801.0727539062502	-620.7710571289064	-574.9607543945314	902.103698730469	-707.4417724609376	-590.8227539062501	873.8198852539065	-734.0682983398439	-586.7880249023439	871.1697998046877	-679.4724121093751	-359.3370666503907	667.2904663085939	-928.0086669921877	-273.6175842285157	664.7435302734376	-927.7737426757815	-255.1974792480469	704.3115844726564	-908.0789794921877	-238.1227569580079	614.8632812500001	-924.3424072265627	-159.2152557373047	559.3526611328126	-914.3630371093752	-32.75473785400391	479.7631835937501	-892.385681152344	-57.38199996948244	412.6363525390626	-944.7073364257815	-23.58179092407227	430.4817810058595	-922.8435058593752	23.40861892700196	363.8017883300782	-893.000915527344	37.70964431762696	220.3179779052735	-921.5008544921877	55.55713653564455	235.1616516113282	-839.666442871094	-10.34847640991211	170.1879272460938	-869.194519042969	199.6526947021485	210.9336395263672	-851.997253417969	205.4258575439454	209.1636810302735	-891.142517089844	171.2178497314453	168.7042999267578	-938.6457519531252	-398.3946838378907	638.8003540039064	-554.3273315429689	-332.8063354492188	634.5875244140626	-565.8366088867189	-318.8056945800782	662.7518310546876	-583.6074829101564	-288.2453918457032	564.2513427734376	-570.5786743164064	-204.4386596679688	445.5146484375001	-620.7028198242189	-217.2002868652344	282.9577331542969	-704.3811645507814	-296.0897216796876	223.8231964111329	-652.6123046875001	-267.8441772460938	213.5515899658204	-689.5687866210939	-296.0571899414063	187.2612915039063	-734.5599975585939	-383.2133789062501	124.3031768798828	-690.9654541015626	-365.6993103027344	135.3933715820313	-768.7842407226565	-455.5882568359376	106.2418746948242	-749.4938964843751	-256.7068176269532	56.66561126708986	-773.7912597656252	-252.4941406250001	60.21864700317384	-728.2384033203126	-292.3604736328126	48.51647949218751	-674.0725708007814	-194.0139923095704	1461.463623046875	-629.0419311523439	
783	3.91	-320.1186523437501	1427.382080078125	-773.2945556640627	-324.3349304199219	1418.590454101563	-633.5177612304689	-364.9407958984376	1281.835083007813	-692.2749023437501	-510.7786254882814	1036.618408203125	-695.5534057617189	-246.1869506835938	1201.9072265625	-701.4659423828126	-289.2363586425782	1280.879272460938	-821.9392700195315	-173.8102111816407	1262.16650390625	-880.921813964844	-147.9622039794922	1246.16455078125	-842.6293945312502	-107.7703018188477	1259.090942382813	-885.3372802734377	-38.40255355834962	1238.945068359375	-925.1831665039065	-40.08465576171876	1179.369995117188	-923.5647583007815	215.6702880859376	1224.135620117188	-855.7488403320315	208.5187988281251	1239.403076171875	-922.2767333984377	287.0130004882813	1238.995971679688	-855.7036743164065	-274.3095397949219	1274.065795898438	-590.0665893554689	-155.6624755859375	1225.258911132813	-485.0164489746095	-135.5491333007813	1246.169799804688	-524.3823852539064	-88.59917449951173	1220.8583984375	-487.4414367675782	-12.93413066864014	1217.221313476563	-504.2944641113282	-22.18150901794434	1158.041259765625	-506.0502014160157	217.6636657714844	1218.138916015625	-611.0103759765626	233.7830505371094	1233.387939453125	-544.5778808593751	302.8784484863282	1232.52001953125	-617.2517089843751	-446.8092041015626	826.6994628906252	-823.4798583984377	-430.4803161621095	800.0139770507815	-620.6870727539064	-575.0816040039064	901.085876464844	-707.3382568359376	-590.9172973632814	872.702331542969	-733.9597167968751	-586.8581542968751	870.1843872070315	-679.4374389648439	-359.5755920410157	666.5571899414064	-928.0664062500002	-273.8985290527344	664.2561035156251	-927.8904418945315	-255.4865112304688	703.7982177734376	-908.1418457031252	-238.1154937744141	614.3794555664064	-924.4046630859377	-159.0456695556641	559.1654052734376	-914.3657836914065	-32.54705810546876	479.5542602539064	-892.106628417969	-56.95288467407228	412.5446777343751	-944.7473144531252	-23.22885894775391	430.5574035644532	-922.823669433594	23.90179252624512	363.9274597167969	-893.0885009765627	38.17346191406251	220.4946289062501	-921.5061035156252	55.99702453613283	235.279525756836	-839.6870727539065	-9.919260978698732	170.3252868652344	-869.2691650390627	200.086654663086	210.9248046875001	-851.9071044921877	205.8682708740235	209.0717163085938	-891.000915527344	171.5914459228516	168.6531677246094	-938.606140136719	-398.2419433593751	637.9707031250001	-554.3278198242189	-332.6938781738282	633.9673461914064	-565.9043579101564	-318.8164062500001	662.1599121093751	-583.7987060546876	-287.9851074218751	563.7869262695314	-570.8739624023439	-204.0351562500001	445.239471435547	-620.9057617187501	-217.0712890625001	282.7779846191407	-704.6078491210939	-295.8992614746094	223.8003234863282	-652.7533569335939	-267.7235107421876	213.4718780517579	-689.7250366210939	-295.9497070312501	187.1424102783203	-734.6976318359376	-383.0708923339844	124.3297348022461	-690.9191284179689	-365.7416381835938	135.3539123535157	-768.791687011719	-455.5251770019532	106.2962875366211	-749.4951171875001	-256.7099609375001	56.73657226562501	-773.8011474609377	-252.4530029296876	60.20677566528322	-728.3007812500001	-292.4246215820313	48.53683853149415	-674.1470947265626	-193.6913757324219	1460.298461914063	-629.3283691406251	
784	3.915	-320.3930358886719	1426.263305664063	-773.6149902343752	-324.0237426757813	1417.086303710938	-634.0297241210939	-365.6693725585938	1281.714233398438	-691.8855590820314	-510.7683410644532	1035.480590820313	-695.5772094726564	-246.0385437011719	1200.719482421875	-701.5568237304689	-289.1901245117188	1279.696899414063	-821.964050292969	-173.6762084960938	1261.108642578125	-880.952819824219	-147.7398071289063	1244.749877929688	-842.661315917969	-107.6667022705078	1257.990356445313	-885.2619628906252	-38.2595443725586	1237.923461914063	-925.1636962890627	-39.97175216674805	1178.379272460938	-923.585388183594	215.7522583007813	1223.343505859375	-855.6127929687502	208.8672332763672	1238.570556640625	-921.7943115234377	287.0810241699219	1238.223388671875	-855.5502929687502	-274.2625732421876	1273.530395507813	-590.6257324218751	-157.1624755859375	1224.874877929688	-484.4070434570314	-135.6098937988282	1245.2080078125	-524.0189819335939	-88.47727966308595	1220.004150390625	-487.475311279297	-12.85348606109619	1216.192749023438	-504.2213439941407	-22.16354942321778	1156.50244140625	-506.3023986816407	217.8096313476563	1217.154296875	-610.8801269531251	233.7230987548829	1232.5498046875	-544.4435424804689	303.3594360351563	1231.3212890625	-616.9353637695314	-447.0494689941407	825.6067504882815	-823.4578857421877	-430.6135864257814	798.974060058594	-620.6892700195314	-575.1408691406251	899.9511718750002	-707.2482910156251	-591.1859130859376	871.6021118164065	-733.9260864257814	-587.0833740234376	869.0994873046877	-679.2620239257814	-359.8040771484376	665.7369995117189	-928.1317138671877	-274.0895690917969	663.8142089843751	-927.970153808594	-255.6626281738282	703.2547607421876	-908.2017822265627	-238.0796813964844	613.9143676757814	-924.4470214843752	-158.9021453857422	558.9766235351564	-914.3908691406252	-32.22645568847657	479.5996704101564	-892.1975708007815	-56.5597610473633	412.5209045410157	-944.7859497070315	-22.84195137023926	430.5468139648439	-922.8767089843752	24.22743606567384	364.0686950683594	-893.1172485351565	38.67107009887696	220.6364746093751	-921.5236816406252	56.46680450439455	235.382064819336	-839.6787109375002	-4.334077835083009	165.8362884521485	-866.6287841796877	200.6009826660157	210.8540649414063	-851.757995605469	206.4300689697266	209.1090850830079	-890.8352050781252	172.08203125	168.6954345703125	-938.5049438476565	-398.1642456054689	637.0807495117189	-554.4238281250001	-332.6242370605469	633.3180541992189	-566.1027832031251	-318.7729492187501	661.4793701171876	-583.8880004882814	-287.7196655273438	563.2379150390626	-570.9456176757814	-203.5968475341797	444.9121398925782	-621.0488891601564	-216.7564849853516	282.6399230957032	-704.8358764648439	-295.7286071777344	223.7932281494141	-652.9439086914064	-267.6334838867188	213.278060913086	-689.9166870117189	-295.8669128417969	187.1170806884766	-734.8672485351564	-383.0692138671876	124.3323669433594	-690.9236450195314	-365.7126770019532	135.3424530029297	-768.864685058594	-455.5927734375001	106.2301254272461	-749.4929809570314	-256.7442932128907	56.70552825927736	-773.847106933594	-248.5430297851563	54.15356445312501	-731.6195678710939	-292.3839416503907	48.57097625732423	-674.2207031250001	-193.4656677246094	1459.026611328125	-629.5755004882814	
